<?xml version="1.0" encoding="UTF-8"?>
<svg id="Layer_1" data-name="Layer 1" xmlns="http://www.w3.org/2000/svg" viewBox="0 0 116.79 117.25">
  <defs>
    <style>
      .cls-1 {
        fill: #4a4b4c;
        stroke-width: 0px;
      }
    </style>
  </defs>
  <path class="cls-1" d="m21.32,85.27c-.46,3.25-.7,6.49-.7,9.5,0,5.1,2.32,8.11,7.42,8.11,15.99,0,34.3-16.92,49.82-34.76,6.72-7.65,29.43-35.69,33.6-41.48.7-.93,1.16-1.39,1.85-1.39,2.09,0,3.48,4.4,3.48,4.4-6.26,9.96-19.93,29.2-33.14,47.27-15.99,21.78-38.23,40.32-52.83,40.32-8.81,0-30.82-13.21-30.82-30.82C0,51.68,32.9,0,58.16,0c7.88,0,9.27,12.28,16.22,16.92,4.63,3.01,13.44,4.17,13.44,15.99,0,11.12-46.58,41.94-66.51,52.37Zm45.42-55.84c-.7-.23-1.62-.46-2.32-.46-16.22,3.94-31.75,22.71-39.16,42.87,28.27-19.23,37.08-33.6,41.48-42.4Z"/>
</svg>