<?xml version="1.0" encoding="UTF-8"?>
<svg id="Layer_1" data-name="Layer 1" xmlns="http://www.w3.org/2000/svg" viewBox="0 0 102.91 107.03">
  <defs>
    <style>
      .cls-1 {
        stroke-width: 0px;
      }
    </style>
  </defs>
  <path class="cls-1" d="m84.59,16.53c11.4,9.9,18,24.9,17.4,40-.6,27.4-24.1,49.8-51.5,49-15.6-.3-30.9-8.2-39.9-21C-11.21,54.33,6.89,11.13,43.59,5.03,5.99,10.43-12.61,54.53,9.49,85.23c9.4,13.6,25.7,21.8,42.1,21.8,27.9-.2,50.9-22.6,51.3-50.5.5-15.2-6.7-30.4-18.3-40Z"/>
  <path class="cls-1" d="m12.09,55.23c0,27.9,28.6,46.9,54.3,36,13.69-5.69,23.29-19.56,23.77-34.35-.58,14.7-10.18,28.55-23.97,33.85-25.1,10.2-52.8-8.5-52.7-35.5-.08-20.38,15.75-36.03,34.26-38.1-.43,1.3-.84,2.6-1.26,3.9-.53,1.21-.84,2.46-.96,3.73-.24,1.67-.06,3.51.28,5.19-4.53.93-8.93,3.16-12.72,6.88-10.2,9.8-10.2,27,0,36.8.78.76,1.58,1.47,2.41,2.1l-.42,1.44c-1.87-1.36-3.58-2.93-5.09-4.64,1.45,1.8,3.15,3.45,5.03,4.86l-.33,1.14c-.04.14-.07.29-.09.43-2.72-1.95-5.14-4.32-7.11-6.93,1.92,2.69,4.34,5.12,7.09,7.11-.11.75.02,1.51.32,2.16-4.7-3.03-8.63-7.3-11.11-12.26,2.36,5.21,6.44,9.69,11.38,12.76h0c.5.78,1.27,1.36,2.22,1.54.3.11.61.16.91.17h.01s.02,0,.03,0c4.2,1.97,8.83,2.94,13.47,2.56,0,0,0,0,0,0,.02.06.05.11.08.17,1.8,3.1,6.3,2.1,7.5-1,.49-1.98,1-4.02,1.52-6.13,8.18-3.31,14.72-10.64,15.96-20.44-1.29,9.76-7.8,16.97-15.89,20.16.15-.58.29-1.17.44-1.76h0c5.83-2.72,10.64-7.64,12.87-13.73-2.39,5.97-7.1,10.73-12.8,13.44,2.89-11.77,6.11-25.15,9.26-38.28,3.58,3.98,5.95,9.2,6.3,15.3-.32-6.15-2.68-11.42-6.26-15.47,1.15-4.82,2.3-9.6,3.41-14.24,9.38,6.75,15.5,17.85,15.96,29.5-.38-11.67-6.52-22.83-15.89-29.81,1.67-6.95,3.26-13.59,4.72-19.64-1.51,5.96-3.19,12.55-4.95,19.46-.02.11-.05.21-.08.32-1.16,4.56-2.36,9.25-3.56,13.99-.02.05-.03.11-.04.17-3.43,13.44-6.92,27.2-9.91,39.17-.02.09-.05.18-.07.27-.14.57-.28,1.13-.42,1.68-.02.1-.05.2-.07.29-.48,1.94-.95,3.83-1.4,5.65-.3.5-1.2,1.8-2,2-1.8.7-4.1-.5-4.1-2.6-.01-.09-.01-.18-.01-.27.3-.03.61-.08.91-.13-.3.04-.61.08-.91.1.01-.52.16-1.14.31-1.71.57-.07,1.13-.17,1.7-.29-.56.1-1.12.18-1.68.24.1-.39.21-.75.28-1.04.05-.15.09-.31.14-.48.04-.13.08-.26.12-.4.12-.42.26-.86.39-1.33.02-.05.03-.1.05-.15,2-6.81,5.11-17.54,6.8-23.14l1.9-6.4.5-1.6c.3-.6.1-1.6-.7-1.9-.87-.26-1.97-.52-2.9-.79.68-2.85,1.81-7.56,3.32-12.8.03-.1.05-.19.08-.28,1.15-3.97,2.52-8.23,4.08-12.19.06-.17.13-.33.19-.49,2.91-7.25,6.48-13.45,10.56-15-.97.35-1.91.95-2.82,1.74-.11.09-.21.19-.32.29-2.93,2.72-5.54,7.47-7.79,12.81-.07-.03-.13-.06-.2-.09-1.69-.72-3.4-1.31-5.1-1.77.89-4.67,1.74-9.35,2.6-14.03,0-.3-.3-.8-.7-.8s-.7.3-.9.6c-.07.27-.14.58-.22.92l-.09.36-.12.47-.18.69-.17.66-2.77,10.53c-.52-.11-1.04-.2-1.57-.28l.22-.95c.7-2.8,2.5-10.1,3.2-13-.2-.9-.9-1.1-1.5-.4h0c-.19.77-.46,1.84-.77,3.04.3-1.12.57-2.11.77-2.84.54-.63.99-.45,1.23.09.01.01.01.02.01.03.02.05.03.1.05.15.01.02.01.03.01.03l-2.2,8.7c-.23,1.06-.79,3.42-1.23,5.12-.06.24-.12.47-.18.68-.07.27-.13.51-.19.7l-.3,1.1c0,.4.4.7.7.9,1,.4,1.2-.7,1.4-1.4l.28-1.01.17-.64.15-.55c.7-2.8,2.6-10,3.4-13v.1c.2-.2.4-.4.6-.4.1,0,.28.27.38.38-.85,4.65-1.74,9.26-2.68,13.89-.04.21-.09.42-.13.63-.45,2.19-.9,4.39-1.37,6.6-.23,2.08-1.01,3.94-2.1,5.61-.07.12-.15.24-.23.35-1.29,1.89-2.97,3.54-4.67,5.04-.7.7-1.2,1.6-1.4,2.5l-1.2,5.3c-1.6,6.9-5.8,25.1-7.3,31.7l-.78,3.45-.15.66-.27,1.19c-.02.07-.05.15-.08.22-.03.08-.06.16-.1.24-.22.5-.55.93-.94,1.26-.06.04-.12.09-.18.13-.63.44-1.43.61-2.3.35-1.42-.25-2.15-1.48-2.1-2.82-.01-.07,0-.13,0-.2.01-.19.04-.39.09-.58l.29-.99.06-.23.41-1.41.23-.81.51-1.76c1.9-6.6,7.1-24.4,9.1-31.2l1.5-5.2c.6-1.9-.3-3.7-.8-5.5-.15-.46-.28-.92-.4-1.39.36-.08.72-.15,1.07-.2.22.72.49,1.42.83,2.09-.2-.7-.42-1.41-.63-2.12-.05-.19-.1-.37-.15-.56-.24-.92-.42-1.86-.42-2.82,0-1.8.5-3.7,1-5.5-1.28,2.63-1.48,5.6-.78,8.35-.35.04-.7.1-1.05.17-.62-2.79-.6-5.67.53-8.42.42-1.43.86-2.88,1.32-4.34.09-.29.18-.58.28-.87,1.64-5.18,3.43-10.43,5-15.29.2-.1.5-.3.6-.2.18,0,.28.25.29.53-.7,2.92-2.59,10.18-3.29,12.97l-.51,1.89-.09.31c-.05.16-.1.34-.15.51-.15.6-.2,1.24.65,1.39.4,0,.9-.2,1-.6l.23-.83.07-.27s.02-.09.03-.14l.07-.26.03-.1.57-2.1c.78-2.71,2.68-9.65,3.43-12.62-.08.07-.13.12-.13.12l-3.96,14.59c-.45-.01-.89-.01-1.34-.01l.6-2.18c.7-2.8,2.6-10,3.4-12.9-.1-.4-.1-.8-.5-1-.3-.1-.8.1-1,.4-1.84,5.3-3.63,10.55-5.35,15.82-19.27,1.61-35.95,17.71-35.95,38.98ZM57.99,19.55c-.08.12-.19.21-.32.25-.01.01-.02.02-.03.01-.12.02-.27,0-.45-.08-.3-.2-.6-.5-.6-.8l.3-1.1.13-.57c.52.07,1.03.15,1.55.24l-.48,1.83s-.02.06-.03.09c-.02.05-.04.09-.07.13Zm-19.12,63.91c.7-.09,1.36-.41,1.91-.86,3.39,1.37,7.01,2.05,10.63,1.77,0,.57.13,1.15.39,1.67-4.48.22-8.9-.73-12.94-2.58Zm3.22-2.93l.23-1.01c3.19,1.17,6.5,1.64,9.77,1.5h0c-.18.49-.35,1-.47,1.53-3.3.18-6.57-.43-9.66-1.61.05-.13.1-.27.13-.41Zm1.2-5.3c1.5-6.7,5.6-24.8,7.1-31.7l1.2-5.3c.2-.8.6-1.5,1.2-2.1,1.82-1.6,3.57-3.4,4.89-5.45,1.5.36,2.97.87,4.38,1.5-1.65,5.47-2.86,10.38-3.57,13.25l-.1.4c.1,0,3.3.9,3.5.9.4.2.4.4.2.9l-.5,1.6-1.9,6.4c-1.73,5.74-5.03,16.86-7.05,23.56-1.21.1-2.43.12-3.65.04,1.21.12,2.42.15,3.62.07-.14.46-.27.89-.39,1.3-3.27.1-6.59-.45-9.76-1.71l.83-3.66Zm8.31,7.4c-.13.55-.21,1.12-.19,1.68-3.6.19-7.15-.5-10.47-1.85.38-.37.71-.8.92-1.29,3.11,1.17,6.43,1.72,9.74,1.46Zm14.59-62.9c.07.03.13.05.2.08-1.63,3.93-3.05,8.15-4.24,12.09-1.37-.64-2.8-1.16-4.26-1.55,1.04-1.7,1.78-3.56,2-5.62.44-2.22.86-4.43,1.28-6.65,1.68.42,3.36.97,5.02,1.65Zm-19.1,17.2l-1.6,5.2c-2,6.8-7.4,24.7-9.3,31.2l-.45,1.57c-.7-.58-1.39-1.2-2.05-1.87-9.7-9.4-9.7-26.2,0-35.6,3.63-3.66,7.87-5.89,12.24-6.89.35,1.61.83,3.03,1.16,3.99.02.05.03.1.04.15.16.73.14,1.53-.04,2.25Zm4.93-20.03l-.2.72c-.17.16-.42.21-.63.21-.56-.06-.62-.47-.53-.91.45-.01.91-.02,1.36-.02Z"/>
  <path class="cls-1" d="m17.99,69.33c-4.1-8.4-3.3-18.2-.9-27-2.8,8.7-3.6,18.8.9,27Z"/>
  <path class="cls-1" d="m53.67,18.93s.02.01.03.01c-.03-.01-.05-.02-.06-.04,0,.02.02.02.03.03Z"/>
  <path class="cls-1" d="m56.98,1.15c.23.07.41.32.51.68-.8,2.9-2.6,10.2-3.3,13l-.31,1.38-.17.73-.02.09-.3,1.1c-.05.18-.03.36.05.51.02.06.05.1.09.15.02.04.04.06.06.06-.17-.2-.18-.54.1-1.02l.24-.87c.4.02.79.04,1.19.08l-.13.49c-.17.52-.2,1.4-.78,1.51.28-.03.51-.22.58-.51l.3-1.1.1-.38.2-.71.3-1.11c.21-.82.52-2.04.88-3.42-.13.46-.25.9-.37,1.32l-.16.6-.1.36c-.13.47-.25.89-.35,1.24l-.27,1c-.4-.04-.79-.08-1.19-.11l.46-1.69c.7-2.8,2.6-10.1,3.3-13-.2-.9-.9-1.1-1.5-.4-.02.08-.04.17-.07.27.21-.21.41-.29.59-.26.03,0,.05,0,.07,0Z"/>
  <path class="cls-1" d="m69.01,36.49c-.02.06-.04.13-.05.19-.61,2.37-1.2,4.73-1.77,7.05.64-2.29,1.27-4.6,1.9-6.93.02-.06.03-.12.05-.18,1.21-4.51,2.4-9.06,3.59-13.54.03-.12.06-.23.09-.35.36-1.34.71-2.68,1.07-4-.38,1.31-.76,2.63-1.14,3.96-.03.11-.07.23-.09.34-1.27,4.45-2.5,8.98-3.65,13.46Z"/>
  <path class="cls-1" d="m56.76,11.11c.22-.79.44-1.63.66-2.46-.23.83-.45,1.67-.66,2.46Z"/>
</svg>