
<svg id="Layer_1" data-name="Layer 1" xmlns="http://www.w3.org/2000/svg" viewBox="0 0 85.04 85.04">

  <path class="cls-1" d="m60.66,75.45c-2.49.11-4.87-.4-7.28-1.13-16.06-4.62-28.04-14.55-37.75-27.81-3.62-5.01-7.05-10.17-8.16-16.34-1.33-7.39.79-13.7,6.32-18.8,1.78-1.64,7.14-2.35,9.29-1.3.79.4,1.27,1.05,1.67,1.84,2.01,4.76,4.02,9.57,5.98,14.36.37.93.2,1.87-.2,2.78-1.05,2.24-2.66,4.02-4.33,5.75-1.25,1.3-1.33,2.49-.4,4.02,5.66,9.4,13.51,16.25,23.76,20.36,1.5.65,2.69.46,3.65-.88,1.76-2.1,3.57-4.19,5.18-6.37,1.08-1.53,2.41-1.78,3.94-1.08,3.4,1.59,6.77,3.17,10.19,4.82.74.34,1.44.68,2.24,1.08,3.43,1.7,3.37,1.7,3.06,5.46-.54,7.45-6.09,11.07-12.69,12.92-1.44.39-2.95.39-4.47.34Z"/>
</svg>