
<svg id="Layer_1" data-name="Layer 1" xmlns="http://www.w3.org/2000/svg" viewBox="0 0 85.04 85.04">
 
  <path class="cls-1" d="m60.66,75.87c-2.49.11-4.87-.4-7.28-1.13-16.06-4.62-28.04-14.55-37.75-27.81-3.62-5.01-7.05-10.17-8.16-16.34-1.33-7.39.79-13.7,6.32-18.8,1.78-1.64,7.14-2.35,9.29-1.3.79.4,1.27,1.05,1.67,1.84,2.01,4.76,4.02,9.57,5.98,14.36.37.93.2,1.87-.2,2.78-1.05,2.24-2.66,4.02-4.33,5.75-1.25,1.3-1.33,2.49-.4,4.02,5.66,9.4,13.51,16.25,23.76,20.36,1.5.65,2.69.46,3.65-.88,1.76-2.1,3.57-4.19,5.18-6.37,1.08-1.53,2.41-1.78,3.94-1.08,3.4,1.59,6.77,3.17,10.19,4.82.74.34,1.44.68,2.24,1.08,3.43,1.7,3.37,1.7,3.06,5.46-.54,7.45-6.09,11.07-12.69,12.92-1.44.39-2.95.39-4.47.34Z"/>
  <g>
    <path class="cls-1" d="m67.06,18.72c2.69,2.44,4.62,5.41,6.15,8.64,1.27,2.55,2.01,5.32,2.55,8.1.06.65.34,1.25-.23,1.78-1.56.06-3.06.11-4.64.26-.59.06-.76-.06-.82-.65-.71-5.35-2.89-9.97-6.51-13.85-5.32-5.61-11.92-8.38-19.68-8.18h-.99c-.08-1.7-.11-3.43-.14-5.13.34-.65.93-.54,1.44-.54,3.23-.06,6.4.34,9.43,1.27,2.55.77,4.96,1.76,7.19,3.14.65.48,1.3.94,1.9,1.44.54.4,1.53,1.33,2.04,1.73.59.54,1.73,1.44,2.32,1.98Z"/>
    <path class="cls-1" d="m59.52,23.05c4.22,3.71,6.88,8.33,7.73,13.91.08.68-.03.93-.74.93-1.39.06-2.72.2-4.08.34-.45.06-.59,0-.65-.54-.71-4.81-3.17-8.69-7.14-11.47-3-2.1-6.32-3.17-9.94-3.03-.62,0-.82-.14-.85-.74-.08-1.36-.2-2.75-.37-4.14-.03-.45.08-.59.57-.65,5.78-.14,10.93,1.64,15.46,5.38Z"/>
    <path class="cls-1" d="m53.8,38.94c-.65-4.53-4.16-7.64-8.64-7.7-.4,0-.57-.06-.62-.54-.06-1.39-.23-2.75-.37-4.14-.06-.48.08-.59.54-.59,6.71-.46,13.56,5.32,14.27,12.06.06.45-.11.51-.42.51-1.59.14-3.17.28-4.76.39Z"/>
  </g>
</svg>