
<svg id="Layer_1" data-name="Layer 1" xmlns="http://www.w3.org/2000/svg" viewBox="0 0 85.04 85.04">

  <path class="cls-1" d="m76.99,34.23c-3.9-16.09-17.75-27.12-34.5-27.31-2.22.05-4.57.25-6.76.7C12.29,12.37.22,38.24,11.57,59.2c.34.57.34,1.03.22,1.6-1.55,5.47-3.06,11.01-4.56,16.51q-.24.91.64.67c5.73-1.5,11.42-2.99,17.13-4.49.53-.1.88-.07,1.31.12,7.34,3.8,15.13,4.85,23.25,3.3,19.35-3.73,32.09-23.5,27.43-42.67Zm-29.53,37.01c-1.62.26-3.25.45-4.06.41-6.24,0-11.28-1.41-15.94-4.23-.65-.33-1.15-.45-1.82-.26-3.18.88-6.33,1.65-9.44,2.51-.67.17-.74.02-.57-.57.81-2.99,1.62-5.95,2.51-8.91.22-.81.12-1.43-.36-2.17-6.45-10.39-6.14-23.27,1.05-32.88,7.48-9.94,17.68-14.06,29.87-11.5,12.04,2.56,19.69,10.31,22.48,22.28,3.87,16.37-7.19,32.61-23.73,35.34Z"/>
  <path class="cls-1" d="m51.73,59.23c-1.24.07-2.49-.24-3.66-.53-8.15-2.39-14.22-7.42-19.16-14.13-1.82-2.5-3.51-5.11-4.09-8.27-.67-3.72.43-6.97,3.15-9.49.93-.86,3.68-1.2,4.75-.68.36.19.65.54.79.91,1.03,2.47,2.06,4.85,3.08,7.3.17.48.1.94-.12,1.42-.55,1.11-1.34,1.98-2.22,2.9-.62.62-.62,1.24-.17,1.98,2.87,4.8,6.81,8.27,12.04,10.35.76.29,1.34.23,1.82-.4.91-1.11,1.79-2.16,2.63-3.3.55-.74,1.22-.86,2.01-.51,1.7.76,3.44,1.61,5.11,2.39.43.23.77.37,1.17.56,1.7.86,1.7.91,1.55,2.78-.31,3.75-3.06,5.6-6.38,6.53-.81.22-1.58.22-2.32.17Z"/>
</svg>